<?xml version="1.0" standalone="no"?>
<!DOCTYPE svg PUBLIC "-//W3C//DTD SVG 20010904//EN"
 "http://www.w3.org/TR/2001/REC-SVG-20010904/DTD/svg10.dtd">
<svg version="1.0" xmlns="http://www.w3.org/2000/svg"
 width="128.000000pt" height="128.000000pt" viewBox="0 0 128.000000 128.000000"
 preserveAspectRatio="xMidYMid meet">
<metadata>
Created by potrace 1.13, written by Peter Selinger 2001-2015
</metadata>
<g transform="translate(0.000000,128.000000) scale(0.100000,-0.100000)"
fill="#000000" stroke="none">
<path d="M606 782 c-4 -7 -4 -16 -1 -22 3 -5 1 -10 -6 -10 -8 0 -8 -4 1 -15 9
-11 9 -15 1 -15 -7 0 -9 -4 -6 -10 3 -5 2 -10 -4 -10 -16 0 -24 -40 -10 -56
10 -12 9 -13 -6 -8 -15 6 -17 2 -13 -29 3 -29 1 -34 -9 -25 -10 8 -13 5 -13
-11 0 -15 6 -21 24 -21 19 0 25 6 28 30 3 21 0 30 -11 33 -13 4 -13 5 2 6 9 0
17 9 17 19 0 14 8 17 49 16 57 -2 72 -9 65 -29 -4 -8 -10 -12 -15 -9 -5 3 -9
0 -9 -5 0 -6 6 -11 13 -11 7 0 4 -7 -7 -15 -14 -11 -16 -15 -5 -15 12 0 12 -2
-1 -10 -12 -8 -11 -10 8 -10 26 0 46 40 37 71 -4 11 -2 19 3 19 12 0 32 78 25
96 -8 22 -22 16 -29 -11 -3 -14 -10 -25 -15 -25 -5 0 -6 -8 -3 -17 4 -12 3
-14 -3 -6 -4 6 -26 13 -48 15 -43 3 -46 10 -31 73 5 20 4 26 -2 16 -8 -11 -10
-11 -14 0 -3 10 -6 10 -12 1z"/>
<path d="M239 771 c-1 -3 0 -14 1 -24 1 -10 -3 -24 -8 -30 -16 -21 -43 -119
-37 -135 3 -8 0 -19 -7 -24 -8 -4 12 -8 47 -8 46 0 66 5 85 21 14 11 18 18 10
14 -10 -4 -9 -1 3 8 18 15 23 52 8 61 -10 7 -9 20 7 56 6 14 11 19 12 10 1 -9
5 -5 11 9 15 37 -4 51 -72 50 -32 -1 -60 -4 -60 -8z"/>
</g>
</svg>
